<svg width="144" height="34" viewBox="0 0 190 46" fill="none" xmlns="http://www.w3.org/2000/svg">
<path d="M5.75 44.9531C4.84375 44.9531 4 44.5469 3.21875 43.7344C2.46875 42.9531 1.84375 41.8125 1.34375 40.3125C0.875 38.8438 0.53125 37.0312 0.3125 34.875C0.125 32.6875 0.140625 30.2031 0.359375 27.4219C0.484375 25.5781 0.734375 23.7031 1.10938 21.7969C1.48438 19.8594 1.90625 18 2.375 16.2188C2.84375 14.4062 3.34375 12.7031 3.875 11.1094C4.40625 9.51562 4.89062 8.10938 5.32812 6.89062C5.79688 5.64063 6.17188 4.64062 6.45312 3.89062C6.76562 3.14062 6.95312 2.70312 7.01562 2.57812C7.10938 2.42187 7.28125 2.26563 7.53125 2.10938C7.8125 1.92188 8.125 1.76562 8.46875 1.64062C8.84375 1.51563 9.23438 1.42188 9.64062 1.35938C10.0781 1.26562 10.4844 1.21875 10.8594 1.21875C11.1719 1.21875 11.4688 1.23438 11.75 1.26562C12 1.29687 12.25 1.34375 12.5 1.40625C12.75 1.46875 12.9688 1.5625 13.1562 1.6875C12.8125 1.90625 12.4688 2.25 12.125 2.71875C11.8125 3.15625 11.5156 3.625 11.2344 4.125C10.8906 4.6875 10.5781 5.29688 10.2969 5.95312C9.67188 7.26562 9.01562 8.85938 8.32812 10.7344C7.64062 12.6094 6.98438 14.6094 6.35938 16.7344C5.76562 18.8281 5.23438 20.9688 4.76562 23.1562C4.32812 25.3125 4.03125 27.3438 3.875 29.25C3.625 33.0938 3.76562 35.9531 4.29688 37.8281C4.82812 39.7344 5.57812 40.6875 6.54688 40.6875C7.01562 40.6875 7.51562 40.3906 8.04688 39.7969C8.57812 39.2031 9.10938 38.4375 9.64062 37.5C10.2031 36.5625 10.75 35.5156 11.2812 34.3594C11.8125 33.2031 12.3125 32.0625 12.7812 30.9375C13.0625 30.2188 13.3594 29.4219 13.6719 28.5469C14.0156 27.6406 14.3438 26.7188 14.6562 25.7812C15 24.8438 15.3281 23.9219 15.6406 23.0156C15.9531 22.0781 16.2344 21.2344 16.4844 20.4844C16.4844 19.5469 16.5 18.5625 16.5312 17.5312C16.5625 16.4688 16.625 15.4062 16.7188 14.3438C16.8438 13.25 17 12.1875 17.1875 11.1562C17.375 10.0938 17.625 9.125 17.9375 8.25C18.5625 6.5625 19.2969 5.32812 20.1406 4.54688C20.9844 3.73437 21.7188 3.3125 22.3438 3.28125C22.7812 3.28125 23.0938 3.46875 23.2812 3.84375C23.4688 4.21875 23.5469 4.71875 23.5156 5.34375C23.4531 6.15625 23.3125 7.14062 23.0938 8.29688C22.875 9.42188 22.6094 10.6406 22.2969 11.9531C22.0156 13.2344 21.6875 14.5469 21.3125 15.8906C20.9375 17.2031 20.5781 18.4688 20.2344 19.6875C19.6719 22.9062 19.3281 25.8281 19.2031 28.4531C19.0781 31.0469 19.0938 33.2812 19.25 35.1562C19.4375 37 19.7344 38.4219 20.1406 39.4219C20.5781 40.4531 21.0938 40.9688 21.6875 40.9688C22.375 40.9688 23.0938 40.5 23.8438 39.5625C24.625 38.625 25.3906 37.3906 26.1406 35.8594C26.8906 34.2969 27.6094 32.5312 28.2969 30.5625C29.0156 28.5938 29.6562 26.5781 30.2188 24.5156C30.8125 22.4219 31.2969 20.375 31.6719 18.375C32.0469 16.3438 32.2969 14.5156 32.4219 12.8906C32.5156 11.5469 32.5625 10.2188 32.5625 8.90625C32.5625 7.78125 32.5156 6.57813 32.4219 5.29688C32.3281 4.01562 32.1562 2.85938 31.9062 1.82812C32.3125 1.48437 32.8594 1.20312 33.5469 0.984375C33.8906 0.859375 34.2656 0.75 34.6719 0.65625C34.9219 0.59375 35.1875 0.546875 35.4688 0.515625C35.7188 0.484375 35.9688 0.46875 36.2188 0.46875C36.4688 0.4375 36.7031 0.453125 36.9219 0.515625C37.1094 0.953125 37.2344 1.51563 37.2969 2.20312C37.3906 2.89062 37.4531 3.5625 37.4844 4.21875C37.5156 5 37.5 5.8125 37.4375 6.65625C37.1875 9.96875 36.75 13.2188 36.125 16.4062C35.5312 19.5938 34.7969 22.625 33.9219 25.5C33.0469 28.3438 32.0625 30.9688 30.9688 33.375C29.9062 35.75 28.7969 37.8125 27.6406 39.5625C26.5156 41.3125 25.375 42.6719 24.2188 43.6406C23.0938 44.6094 22.0156 45.0938 20.9844 45.0938C19.8906 45.0938 19.0156 44.625 18.3594 43.6875C17.7031 42.7812 17.2031 41.625 16.8594 40.2188C16.5156 38.8438 16.2969 37.3594 16.2031 35.7656C16.1094 34.1719 16.0781 32.7031 16.1094 31.3594C15.3906 33.1094 14.6094 34.7969 13.7656 36.4219C12.9531 38.0469 12.0938 39.4844 11.1875 40.7344C10.3125 42.0156 9.40625 43.0312 8.46875 43.7812C7.5625 44.5625 6.65625 44.9531 5.75 44.9531ZM52.1094 28.5469C51.7969 29.7344 51.375 30.8438 50.8438 31.875C50.3125 32.9062 49.6719 33.7969 48.9219 34.5469C48.2031 35.2969 47.375 35.875 46.4375 36.2812C45.5312 36.7188 44.5312 36.9375 43.4375 36.9375C42.1562 36.9375 41.1406 36.6562 40.3906 36.0938C39.6719 35.5625 39.125 34.8906 38.75 34.0781C38.4062 33.2656 38.2031 32.375 38.1406 31.4062C38.0469 30.4375 38 29.5312 38 28.6875C38 28.0938 38.0781 27.4375 38.2344 26.7188C38.3594 26 38.5469 25.2656 38.7969 24.5156C39.0469 23.7656 39.3594 23.0156 39.7344 22.2656C40.1406 21.5156 40.6094 20.8281 41.1406 20.2031C41.3281 19.6719 41.6094 19.2031 41.9844 18.7969C42.3906 18.3906 42.8438 18.0625 43.3438 17.8125C43.875 17.5312 44.4375 17.3281 45.0312 17.2031C45.625 17.0469 46.2031 16.9688 46.7656 16.9688C46.8594 16.9688 46.9375 16.9844 47 17.0156C47.0938 17.0469 47.1875 17.0781 47.2812 17.1094C47.6875 17.1406 48.1875 17.2969 48.7812 17.5781C49.4062 17.8594 50 18.2812 50.5625 18.8438C51.1562 19.4062 51.6562 20.125 52.0625 21C52.4688 21.8438 52.6719 22.875 52.6719 24.0938C52.6719 24.3438 52.6562 24.6562 52.625 25.0312C52.5938 25.375 52.5625 25.6719 52.5312 25.9219C53.25 25.6406 54 25.2969 54.7812 24.8906C55.5625 24.4844 56.3125 24.0625 57.0312 23.625C57.7812 23.1562 58.4688 22.6875 59.0938 22.2188C59.7188 21.75 60.2188 21.3281 60.5938 20.9531C60.9062 20.6719 61.1719 20.5156 61.3906 20.4844C61.6094 20.4531 61.7656 20.5156 61.8594 20.6719C61.9531 20.8281 61.9688 21.0469 61.9062 21.3281C61.8438 21.6094 61.6719 21.9219 61.3906 22.2656C61.2344 22.4531 60.8281 22.8281 60.1719 23.3906C59.5469 23.9531 58.7969 24.5625 57.9219 25.2188C57.0469 25.875 56.0938 26.5156 55.0625 27.1406C54.0312 27.7656 53.0469 28.2344 52.1094 28.5469ZM44.1875 21.4219C44.0938 21.7031 44.0469 22 44.0469 22.3125C44.0469 22.8125 44.0781 23.3438 44.1406 23.9062C44.2031 24.4375 44.3594 24.9219 44.6094 25.3594C44.8594 25.7969 45.25 26.1719 45.7812 26.4844C46.3438 26.7656 47.1094 26.9062 48.0781 26.9062C48.2344 26.9062 48.3906 26.9062 48.5469 26.9062C48.7031 26.875 48.8594 26.8438 49.0156 26.8125C49.1094 26.4062 49.1875 26.0469 49.25 25.7344C49.3438 25.3906 49.3906 25.0938 49.3906 24.8438C49.4531 24.25 49.4531 23.6406 49.3906 23.0156C49.3281 22.3906 49.2031 21.8281 49.0156 21.3281C48.8594 20.7969 48.6406 20.375 48.3594 20.0625C48.1094 19.7188 47.7969 19.5469 47.4219 19.5469C46.8281 19.5469 46.25 19.7188 45.6875 20.0625C45.1562 20.375 44.6562 20.8281 44.1875 21.4219ZM41.1875 29.6719C41.1875 30.2344 41.2188 30.7969 41.2812 31.3594C41.3438 31.8906 41.4688 32.375 41.6562 32.8125C41.8438 33.2188 42.0938 33.5625 42.4062 33.8438C42.7188 34.0938 43.125 34.2188 43.625 34.2188C44.1875 34.2188 44.7031 34.0938 45.1719 33.8438C45.6406 33.5625 46.0625 33.2188 46.4375 32.8125C46.8125 32.375 47.1406 31.8906 47.4219 31.3594C47.7344 30.7969 48 30.2188 48.2188 29.625C48 29.6562 47.7812 29.6875 47.5625 29.7188C47.375 29.7188 47.1562 29.7188 46.9062 29.7188C45.7188 29.7188 44.6875 29.375 43.8125 28.6875C42.9688 27.9688 42.3125 27.0625 41.8438 25.9688C41.6562 26.625 41.5 27.2656 41.375 27.8906C41.25 28.5156 41.1875 29.1094 41.1875 29.6719ZM55.3438 35.7656C55.125 36.1094 54.8906 36.3281 54.6406 36.4219C54.3594 36.5469 54.125 36.5625 53.9375 36.4688C53.7188 36.4062 53.5781 36.25 53.5156 36C53.4531 35.75 53.5156 35.4375 53.7031 35.0625C53.7969 34.875 54.0156 34.4531 54.3594 33.7969C54.6719 33.1406 55.0625 32.3594 55.5312 31.4531C55.9688 30.5156 56.4531 29.5156 56.9844 28.4531C57.5156 27.3594 58.0156 26.3281 58.4844 25.3594C58.9844 24.3906 59.4375 23.5312 59.8438 22.7812C60.25 22 60.5469 21.4375 60.7344 21.0938C60.3906 20.7812 60.1562 20.5625 60.0312 20.4375C59.9062 20.2812 59.8125 19.9688 59.75 19.5C59.6875 19.0938 59.7812 18.5625 60.0312 17.9062C60.2812 17.25 60.6094 16.625 61.0156 16.0312C61.4219 15.4062 61.875 14.875 62.375 14.4375C62.875 14 63.3594 13.7812 63.8281 13.7812C64.7031 13.7812 65.3125 14.0625 65.6562 14.625C66.0312 15.1875 66.25 15.7656 66.3125 16.3594C66.375 16.7656 66.3438 17.2812 66.2188 17.9062C66.0938 18.5312 65.8594 19.0938 65.5156 19.5938C65.6094 19.6562 65.7344 19.7344 65.8906 19.8281C66.0469 19.8906 66.2969 19.9219 66.6406 19.9219C67.1406 19.9219 67.4844 19.8906 67.6719 19.8281C67.8906 19.7656 68.2188 19.7344 68.6562 19.7344C69.1875 19.7344 69.625 19.875 69.9688 20.1562C70.3125 20.4062 70.5938 20.7344 70.8125 21.1406C71.0312 21.5156 71.1875 21.9375 71.2812 22.4062C71.4062 22.8438 71.4844 23.25 71.5156 23.625C71.6094 24.4062 71.4062 25.2188 70.9062 26.0625C70.4062 26.9062 69.7969 27.8281 69.0781 28.8281C68.6406 29.4531 68.2031 30.1562 67.7656 30.9375C67.3281 31.7188 67.1406 32.4219 67.2031 33.0469C67.2656 33.4531 67.375 33.7812 67.5312 34.0312C67.6875 34.2812 68.125 34.4062 68.8438 34.4062C69.375 34.4062 69.9531 34.2188 70.5781 33.8438C71.2344 33.4375 71.8906 32.9375 72.5469 32.3438C73.2344 31.7188 73.9062 31.0469 74.5625 30.3281C75.2188 29.5781 75.8281 28.8594 76.3906 28.1719C76.9531 27.4531 77.4219 26.8125 77.7969 26.25C78.2031 25.6875 78.5 25.2812 78.6875 25.0312C78.8438 24.7812 79.0469 24.6094 79.2969 24.5156C79.5469 24.4219 79.7656 24.4219 79.9531 24.5156C80.1406 24.6094 80.25 24.7969 80.2812 25.0781C80.3438 25.3594 80.2344 25.7344 79.9531 26.2031C79.7656 26.5156 79.4375 27.0156 78.9688 27.7031C78.5312 28.3906 77.9844 29.1562 77.3281 30C76.7031 30.8438 76 31.7188 75.2188 32.625C74.4375 33.5 73.6094 34.3125 72.7344 35.0625C71.8906 35.7812 71.0312 36.375 70.1562 36.8438C69.3125 37.3125 68.5 37.5469 67.7188 37.5469C66.9062 37.5469 66.2344 37.3906 65.7031 37.0781C65.1719 36.7656 64.7344 36.3906 64.3906 35.9531C64.0781 35.4844 63.8438 34.9844 63.6875 34.4531C63.5625 33.8906 63.5156 33.375 63.5469 32.9062C63.5781 32.5312 63.6719 32.1406 63.8281 31.7344C64.0156 31.2969 64.2188 30.8594 64.4375 30.4219C64.6875 29.9531 64.9375 29.5 65.1875 29.0625C65.4688 28.5938 65.7188 28.1406 65.9375 27.7031C66.4688 26.7969 66.8906 26.0312 67.2031 25.4062C67.5469 24.75 67.7188 24.2031 67.7188 23.7656C67.7188 23.4844 67.6562 23.2344 67.5312 23.0156C67.4062 22.7969 67.2031 22.6875 66.9219 22.6875C66.7344 22.6875 66.5938 22.7031 66.5 22.7344C66.4375 22.7344 66.3594 22.7344 66.2656 22.7344C66.2031 22.7344 66.0938 22.75 65.9375 22.7812C65.8125 22.7812 65.6094 22.7812 65.3281 22.7812C64.9219 22.7812 64.5781 22.7188 64.2969 22.5938C64.0156 22.4688 63.75 22.375 63.5 22.3125C63.375 22.5312 63.0938 23 62.6562 23.7188C62.2188 24.4375 61.7031 25.2812 61.1094 26.25C60.5469 27.2188 59.9375 28.2344 59.2812 29.2969C58.6562 30.3594 58.0625 31.3594 57.5 32.2969C56.9375 33.2031 56.4688 33.9844 56.0938 34.6406C55.6875 35.2656 55.4375 35.6406 55.3438 35.7656ZM100.672 26.6719C99.9531 27.8594 99.125 29.0938 98.1875 30.375C97.2812 31.625 96.3125 32.7812 95.2812 33.8438C94.25 34.875 93.1875 35.7344 92.0938 36.4219C91 37.1094 89.9062 37.4531 88.8125 37.4531C87.7188 37.4531 86.9219 37.0781 86.4219 36.3281C85.9531 35.6094 85.7344 34.7969 85.7656 33.8906C85.7656 33.4844 85.7969 33.125 85.8594 32.8125C85.9531 32.5 86.0469 32.2188 86.1406 31.9688C86.2344 31.7188 86.3281 31.4688 86.4219 31.2188C86.5469 30.9375 86.6562 30.625 86.75 30.2812C86.875 29.875 86.875 29.5156 86.75 29.2031C86.6562 28.8594 86.5312 28.5625 86.375 28.3125C86.0938 28.625 85.7656 28.9062 85.3906 29.1562C85.0469 29.375 84.6094 29.4844 84.0781 29.4844C83.7031 29.4844 83.3594 29.3125 83.0469 28.9688C82.7344 28.5938 82.5781 28.1406 82.5781 27.6094C82.5781 27.1719 82.6719 26.8125 82.8594 26.5312C83.0781 26.25 83.3125 26.0312 83.5625 25.875C83.8438 25.7188 84.125 25.6094 84.4062 25.5469C84.6875 25.4844 84.9219 25.4531 85.1094 25.4531C85.2031 25.4531 85.3906 25.4688 85.6719 25.5C85.9844 25.5312 86.3125 25.5781 86.6562 25.6406C87.7812 24.7344 88.5781 23.9219 89.0469 23.2031C89.5469 22.4531 89.5938 21.7812 89.1875 21.1875C88.9375 20.7812 88.625 20.5781 88.25 20.5781C87.875 20.5469 87.4844 20.6406 87.0781 20.8594C86.6719 21.0469 86.2656 21.2969 85.8594 21.6094C85.4844 21.9219 85.1406 22.2188 84.8281 22.5C84.2031 23.125 83.5 23.875 82.7188 24.75C81.9688 25.5938 81.3438 26.2969 80.8438 26.8594C80.625 27.7969 80.4062 28.7812 80.1875 29.8125C80 30.7188 79.7812 31.75 79.5312 32.9062C79.3125 34.0312 79.0781 35.2031 78.8281 36.4219C78.6406 36.5156 78.4375 36.5781 78.2188 36.6094C78.0312 36.6719 77.8594 36.7188 77.7031 36.75C77.5156 36.7812 77.3281 36.7969 77.1406 36.7969C76.8906 36.7969 76.6562 36.7812 76.4375 36.75C76.2188 36.75 76.0469 36.6719 75.9219 36.5156C75.7656 36.3906 75.6875 36.1719 75.6875 35.8594C75.6562 35.5469 75.7344 35.1094 75.9219 34.5469C76.1719 33.7344 76.4844 32.6562 76.8594 31.3125C77.2344 29.9375 77.625 28.4375 78.0312 26.8125C78.4375 25.1875 78.8438 23.5 79.25 21.75C79.6875 19.9688 80.0938 18.2812 80.4688 16.6875C80.8438 15.0625 81.1562 13.6094 81.4062 12.3281C81.6875 11.0156 81.8906 9.98438 82.0156 9.23438C82.1094 8.42188 82.2031 7.64062 82.2969 6.89062C82.3594 6.26562 82.3906 5.65625 82.3906 5.0625C82.4219 4.4375 82.3906 3.96875 82.2969 3.65625C82.4531 3.5 82.6719 3.35937 82.9531 3.23438C83.2344 3.10938 83.5469 3.01563 83.8906 2.95312C84.2344 2.85938 84.6406 2.78125 85.1094 2.71875C85.6406 2.65625 86.0781 2.64063 86.4219 2.67188C86.7969 2.70312 87.0625 2.85938 87.2188 3.14062C87.4062 3.45312 87.4375 3.98438 87.3125 4.73438C87.2188 5.45313 87 6.46875 86.6562 7.78125C86.2188 9.46875 85.7656 11.0156 85.2969 12.4219C84.8594 13.7969 84.4219 15.0938 83.9844 16.3125C83.5781 17.5312 83.1719 18.7188 82.7656 19.875C82.3906 21 82.0469 22.1562 81.7344 23.3438C82.3594 22.4375 83.1406 21.4844 84.0781 20.4844C85.0156 19.4531 86.0781 18.6094 87.2656 17.9531C88.5156 17.2969 89.5469 16.9688 90.3594 16.9688C91.3594 16.9688 92.0781 17.3125 92.5156 18C92.9531 18.6562 93.1562 19.4375 93.125 20.3438C93.0938 21.0625 92.9062 21.7344 92.5625 22.3594C92.25 22.9531 91.8594 23.5156 91.3906 24.0469C90.9219 24.5469 90.4219 24.9844 89.8906 25.3594C89.3594 25.7344 88.9062 26.0469 88.5312 26.2969C88.9688 26.5469 89.3438 26.8906 89.6562 27.3281C90 27.7344 90.1562 28.25 90.125 28.875C90.0938 29.7188 89.9219 30.4688 89.6094 31.125C89.3281 31.75 89.1875 32.3281 89.1875 32.8594C89.2188 33.2656 89.2969 33.5625 89.4219 33.75C89.5781 33.9375 89.8906 34.0312 90.3594 34.0312C91.2031 34.0312 92.0781 33.6719 92.9844 32.9531C93.9219 32.2344 94.7969 31.4062 95.6094 30.4688C96.4219 29.5312 97.1719 28.6094 97.8594 27.7031C98.5469 26.7656 99.0781 26.0781 99.4531 25.6406C99.9844 25.0781 100.422 24.9375 100.766 25.2188C101.141 25.4688 101.109 25.9531 100.672 26.6719ZM98.8438 44.7656C97.625 44.7969 96.625 44.5781 95.8438 44.1094C95.0312 43.6406 94.4062 42.9531 93.9688 42.0469C93.5 41.1719 93.2031 40.0938 93.0781 38.8125C92.9531 37.5625 92.9531 36.1875 93.0781 34.6875C93.2344 33.5312 93.5156 32.3281 93.9219 31.0781C94.2656 30.0156 94.7969 28.8438 95.5156 27.5625C96.2031 26.2812 97.1406 25.0312 98.3281 23.8125C98.5781 23.875 98.7812 23.9531 98.9375 24.0469C99.0938 24.1094 99.2188 24.1875 99.3125 24.2812C99.4062 24.4062 99.4688 24.5156 99.5 24.6094C99.5625 24.9531 99.4688 25.3438 99.2188 25.7812C98.9688 26.2188 98.7188 26.6875 98.4688 27.1875C97.7812 28.625 97.2656 29.9844 96.9219 31.2656C96.5781 32.5469 96.3594 33.7344 96.2656 34.8281C96.2031 35.7656 96.2188 36.6094 96.3125 37.3594C96.375 38.1406 96.4844 38.7969 96.6406 39.3281C96.7969 39.8906 96.9688 40.3125 97.1562 40.5938C97.3438 40.9062 97.5156 41.0625 97.6719 41.0625C97.8281 41.0625 97.9844 40.9531 98.1406 40.7344C98.3281 40.5156 98.5 40.25 98.6562 39.9375C98.8438 39.625 99.0625 39.1406 99.3125 38.4844C99.5625 37.8594 99.8281 37.125 100.109 36.2812C100.391 35.4375 100.656 34.5312 100.906 33.5625C101.188 32.5625 101.438 31.5625 101.656 30.5625C102.094 28.5625 102.562 26.3125 103.062 23.8125C103.562 21.2812 104.297 18.6406 105.266 15.8906C105.578 14.7344 105.969 13.4688 106.438 12.0938C106.812 10.9062 107.281 9.53125 107.844 7.96875C108.438 6.375 109.109 4.65625 109.859 2.8125C109.859 2.65625 109.984 2.51562 110.234 2.39062C110.516 2.23437 110.828 2.07813 111.172 1.92188C111.547 1.76562 111.969 1.60938 112.438 1.45312C113.062 1.23438 113.547 1.10937 113.891 1.07812C114.266 1.04688 114.547 1.09375 114.734 1.21875C114.922 1.34375 115.047 1.51563 115.109 1.73438C115.172 1.92188 115.203 2.14062 115.203 2.39062C115.266 3.42188 115.297 4.39062 115.297 5.29688C115.328 6.20313 115.359 7 115.391 7.6875C115.422 8.5 115.438 9.23438 115.438 9.89062C115.469 10.7656 115.422 11.9375 115.297 13.4062C115.172 14.8438 115.031 16.3594 114.875 17.9531C114.75 19.5469 114.625 21.1094 114.5 22.6406C114.406 24.1406 114.391 25.3906 114.453 26.3906C114.453 26.9219 114.469 27.4219 114.5 27.8906C114.562 28.3281 114.625 28.7656 114.688 29.2031C115.094 28.0781 115.547 26.9062 116.047 25.6875C116.547 24.4375 117.047 23.25 117.547 22.125C118.047 20.9688 118.516 19.9062 118.953 18.9375C119.391 17.9375 119.734 17.1094 119.984 16.4531C120.359 15.5781 120.859 14.4688 121.484 13.125C122.109 11.7812 122.734 10.4375 123.359 9.09375C124.016 7.75 124.609 6.51562 125.141 5.39062C125.703 4.26562 126.109 3.48438 126.359 3.04688C126.547 2.73438 126.859 2.45313 127.297 2.20312C127.766 1.95312 128.25 1.73438 128.75 1.54688C129.281 1.35938 129.766 1.23438 130.203 1.17188C130.672 1.07812 130.984 1.0625 131.141 1.125C131.547 1.21875 131.828 1.34375 131.984 1.5C132.172 1.65625 132.281 1.76562 132.312 1.82812C132.375 1.95312 132.422 2.17188 132.453 2.48438C132.484 2.76562 132.469 3.21875 132.406 3.84375C132.344 4.59375 132.156 5.73438 131.844 7.26562C131.562 8.79688 131.203 10.5469 130.766 12.5156C130.359 14.4531 129.906 16.5312 129.406 18.75C128.938 20.9688 128.484 23.1562 128.047 25.3125C127.609 27.4375 127.219 29.4375 126.875 31.3125C126.562 33.1875 126.359 34.7656 126.266 36.0469C126.203 37.4844 126.297 38.75 126.547 39.8438C126.641 40.3125 126.781 40.7656 126.969 41.2031C127.156 41.6406 127.406 42.0156 127.719 42.3281C128.031 42.6719 128.406 42.9219 128.844 43.0781C129.281 43.2344 129.797 43.2812 130.391 43.2188C129.609 43.75 128.844 44.1406 128.094 44.3906C127.344 44.6406 126.609 44.7656 125.891 44.7656C125.109 44.7969 124.422 44.6719 123.828 44.3906C123.234 44.1406 122.734 43.7656 122.328 43.2656C121.922 42.7969 121.625 42.2188 121.438 41.5312C121.25 40.875 121.188 40.1406 121.25 39.3281C121.312 38.5781 121.516 37.3438 121.859 35.625C122.203 33.9062 122.609 31.9688 123.078 29.8125C123.578 27.625 124.109 25.3594 124.672 23.0156C125.266 20.6406 125.812 18.4219 126.312 16.3594C126.844 14.2656 127.297 12.4688 127.672 10.9688C128.047 9.46875 128.281 8.48438 128.375 8.01562C128.438 7.64062 128.484 7.29688 128.516 6.98438C128.578 6.64062 128.641 6.34375 128.703 6.09375C128.391 6.71875 128 7.46875 127.531 8.34375C127.094 9.21875 126.625 10.1562 126.125 11.1562C125.625 12.1562 125.109 13.2031 124.578 14.2969C124.078 15.3594 123.594 16.3906 123.125 17.3906C122.344 19.0156 121.578 20.6875 120.828 22.4062C120.078 24.0938 119.406 25.7031 118.812 27.2344C118.219 28.7656 117.719 30.1406 117.312 31.3594C116.938 32.5781 116.719 33.5156 116.656 34.1719V34.8281C116.656 35.0156 116.656 35.2344 116.656 35.4844C116.688 35.7344 116.734 35.9688 116.797 36.1875L114.922 37.6406C114.641 37.7344 114.391 37.8125 114.172 37.875C113.984 37.9375 113.797 37.9688 113.609 37.9688C112.891 37.9688 112.344 37.5938 111.969 36.8438C111.594 36.1562 111.25 34.8125 110.938 32.8125C110.625 30.8125 110.531 28.3594 110.656 25.4531C110.719 24.0156 110.812 22.5625 110.938 21.0938C111.094 19.625 111.234 18.2188 111.359 16.875C111.516 15.5312 111.656 14.2812 111.781 13.125C111.906 11.9375 111.969 10.9219 111.969 10.0781C112 9.45312 111.984 8.89062 111.922 8.39062C111.859 7.85938 111.797 7.375 111.734 6.9375C111.453 7.65625 111.141 8.64062 110.797 9.89062C110.453 11.1094 110.094 12.4688 109.719 13.9688C109.344 15.4688 108.953 17.0469 108.547 18.7031C108.172 20.3594 107.797 21.9531 107.422 23.4844C107.078 25.0156 106.75 26.4375 106.438 27.75C106.125 29.0312 105.875 30.0625 105.688 30.8438C105.375 32.0938 105.062 33.5156 104.75 35.1094C104.438 36.7031 104.047 38.2031 103.578 39.6094C103.109 41.0469 102.5 42.25 101.75 43.2188C101 44.2188 100.031 44.7344 98.8438 44.7656ZM157.016 26.6719C156.578 27.2969 156.016 28.0781 155.328 29.0156C154.641 29.9219 153.922 30.8438 153.172 31.7812C152.453 32.6875 151.734 33.5312 151.016 34.3125C150.328 35.0625 149.75 35.5938 149.281 35.9062C148.969 36.0938 148.609 36.25 148.203 36.375C147.797 36.5 147.375 36.5781 146.938 36.6094C146.531 36.6406 146.141 36.6094 145.766 36.5156C145.391 36.4531 145.062 36.3281 144.781 36.1406C144.5 35.9219 144.266 35.6094 144.078 35.2031C143.922 34.8594 143.766 34.4062 143.609 33.8438C143.484 33.2812 143.438 32.5781 143.469 31.7344C142.719 32.9844 141.891 33.9531 140.984 34.6406C140.078 35.2969 139.219 35.7812 138.406 36.0938C137.469 36.4375 136.531 36.6406 135.594 36.7031C135.156 36.7031 134.688 36.5469 134.188 36.2344C133.688 35.9531 133.266 35.5 132.922 34.875C132.578 34.2188 132.359 33.3906 132.266 32.3906C132.172 31.3594 132.297 30.1406 132.641 28.7344C133.078 26.8281 133.766 25.0938 134.703 23.5312C135.672 21.9688 136.719 20.6406 137.844 19.5469C138.969 18.4219 140.078 17.5781 141.172 17.0156C142.266 16.4531 143.172 16.2031 143.891 16.2656C144.734 16.4219 145.422 16.6719 145.953 17.0156C146.391 17.3281 146.672 17.7969 146.797 18.4219C146.953 19.0156 146.703 19.8125 146.047 20.8125C146.484 20.7188 146.844 20.6562 147.125 20.625C147.438 20.5938 147.672 20.5781 147.828 20.5781C148.016 20.5781 148.141 20.5938 148.203 20.625C148.234 20.6875 148.25 20.8281 148.25 21.0469C148.25 21.2344 148.203 21.5938 148.109 22.125C148.016 22.6562 147.875 23.375 147.688 24.2812C147.5 25.1875 147.25 26.3594 146.938 27.7969C146.875 28.0781 146.812 28.3438 146.75 28.5938C146.719 28.8125 146.672 29.0469 146.609 29.2969C146.578 29.5156 146.531 29.7812 146.469 30.0938C146.406 30.4062 146.328 30.7969 146.234 31.2656C146.203 31.5469 146.188 31.8594 146.188 32.2031C146.219 32.5156 146.281 32.8125 146.375 33.0938C146.469 33.375 146.609 33.6094 146.797 33.7969C147.016 33.9531 147.312 34.0312 147.688 34.0312C148 34.0312 148.406 33.8438 148.906 33.4688C149.406 33.0625 149.938 32.5625 150.5 31.9688C151.062 31.3438 151.641 30.6719 152.234 29.9531C152.859 29.2031 153.438 28.4844 153.969 27.7969C154.5 27.1094 154.969 26.5 155.375 25.9688C155.812 25.4375 156.125 25.0469 156.312 24.7969C156.562 24.5156 156.812 24.3594 157.062 24.3281C157.312 24.2656 157.5 24.3281 157.625 24.5156C157.75 24.7031 157.766 24.9844 157.672 25.3594C157.609 25.7344 157.391 26.1719 157.016 26.6719ZM143.281 28.7344C143.438 28.1094 143.625 27.375 143.844 26.5312C144.062 25.6875 144.25 24.875 144.406 24.0938C144.562 23.3125 144.672 22.6719 144.734 22.1719C144.828 21.6406 144.812 21.3906 144.688 21.4219C144.531 21.4531 144.359 21.5 144.172 21.5625C144.016 21.625 143.812 21.6719 143.562 21.7031C143.312 21.7344 143.062 21.7812 142.812 21.8438C143.062 21.3438 143.203 20.9375 143.234 20.625C143.297 20.2812 143.312 20.0156 143.281 19.8281C143.25 19.6094 143.188 19.4375 143.094 19.3125C142.75 19.0312 142.141 19.2656 141.266 20.0156C140.422 20.7344 139.438 22.0781 138.312 24.0469C137.844 24.8594 137.469 25.7344 137.188 26.6719C136.906 27.5781 136.703 28.4375 136.578 29.25C136.484 30.0625 136.469 30.7812 136.531 31.4062C136.594 32 136.719 32.3906 136.906 32.5781C137.25 32.9219 137.641 33.0938 138.078 33.0938C138.516 33.0625 138.953 32.9375 139.391 32.7188C139.859 32.4688 140.312 32.1562 140.75 31.7812C141.219 31.4062 141.625 31.0156 141.969 30.6094C142.344 30.2031 142.641 29.8281 142.859 29.4844C143.109 29.1406 143.25 28.8906 143.281 28.7344ZM171.172 24.1406C171.297 23.9531 171.453 23.8438 171.641 23.8125C171.859 23.75 172.031 23.7656 172.156 23.8594C172.281 23.9531 172.344 24.1094 172.344 24.3281C172.375 24.5469 172.297 24.8438 172.109 25.2188C171.484 26.4062 170.656 27.6875 169.625 29.0625C168.625 30.4375 167.562 31.7344 166.438 32.9531C165.312 34.1406 164.219 35.125 163.156 35.9062C162.094 36.6875 161.203 37.0781 160.484 37.0781C159.453 37.0781 158.594 36.875 157.906 36.4688C157.219 36.0625 156.672 35.5625 156.266 34.9688C155.891 34.375 155.625 33.7344 155.469 33.0469C155.312 32.3281 155.266 31.6719 155.328 31.0781C155.359 30.5781 155.469 29.6875 155.656 28.4062C155.844 27.0938 156.094 25.5938 156.406 23.9062C156.719 22.1875 157.062 20.3594 157.438 18.4219C157.844 16.4531 158.266 14.5625 158.703 12.75C158.172 12.8125 157.641 12.875 157.109 12.9375C156.578 13 156.094 13.0312 155.656 13.0312C154.656 13.0312 153.719 12.9219 152.844 12.7031C151.938 12.4531 151.266 12.2188 150.828 12C150.578 11.875 150.469 11.7031 150.5 11.4844C150.531 11.2344 150.625 11 150.781 10.7812C150.938 10.5312 151.141 10.3281 151.391 10.1719C151.609 9.98438 151.812 9.89062 152 9.89062C152.594 9.95312 153.234 10.0156 153.922 10.0781C154.609 10.1094 155.359 10.1094 156.172 10.0781C156.766 10.0469 157.328 10 157.859 9.9375C158.422 9.875 158.969 9.79688 159.5 9.70312C159.906 8.20312 160.297 6.90625 160.672 5.8125C161.078 4.6875 161.438 3.90625 161.75 3.46875C161.844 3.3125 162.047 3.1875 162.359 3.09375C162.703 2.96875 163.062 2.89062 163.438 2.85938C163.812 2.79687 164.172 2.79687 164.516 2.85938C164.859 2.89062 165.109 3 165.266 3.1875C165.422 3.4375 165.484 4.07812 165.453 5.10938C165.422 6.14062 165.25 7.45312 164.938 9.04688C166.25 9.04688 167.406 9.125 168.406 9.28125C169.438 9.40625 170.312 9.5625 171.031 9.75C171.75 9.90625 172.328 10.0781 172.766 10.2656C173.203 10.4219 173.531 10.5312 173.75 10.5938C173.969 10.6562 174.078 10.8125 174.078 11.0625C174.109 11.3125 174.062 11.5781 173.938 11.8594C173.844 12.1094 173.672 12.3281 173.422 12.5156C173.172 12.7031 172.891 12.7656 172.578 12.7031C172.266 12.6719 171.906 12.6094 171.5 12.5156C171.125 12.4219 170.656 12.3438 170.094 12.2812C169.562 12.2188 168.922 12.1562 168.172 12.0938C167.422 12.0312 166.547 12 165.547 12C165.359 12 165.141 12.0156 164.891 12.0469C164.672 12.0469 164.438 12.0469 164.188 12.0469C164.062 12.5469 163.938 13.0469 163.812 13.5469C163.719 14.0156 163.578 14.5156 163.391 15.0469C162.984 16.2969 162.516 17.6562 161.984 19.125C161.516 20.4062 160.953 21.875 160.297 23.5312C159.641 25.1875 158.906 26.9531 158.094 28.8281C157.906 30.1719 157.922 31.2031 158.141 31.9219C158.391 32.6094 158.688 33.1094 159.031 33.4219C159.438 33.7656 159.938 33.9531 160.531 33.9844C161 34.0469 161.562 33.8906 162.219 33.5156C162.906 33.1094 163.609 32.5781 164.328 31.9219C165.047 31.2656 165.766 30.5469 166.484 29.7656C167.234 28.9844 167.922 28.2188 168.547 27.4688C169.172 26.7188 169.719 26.0469 170.188 25.4531C170.656 24.8281 170.984 24.3906 171.172 24.1406ZM189.594 26.25C188.656 27.625 187.594 28.9688 186.406 30.2812C185.219 31.5625 183.953 32.7188 182.609 33.75C181.297 34.75 179.938 35.5625 178.531 36.1875C177.156 36.8125 175.812 37.125 174.5 37.125C173.812 37.125 173.062 36.9531 172.25 36.6094C171.469 36.2969 170.75 35.7969 170.094 35.1094C169.438 34.4219 168.906 33.5312 168.5 32.4375C168.125 31.3438 168.016 30.0156 168.172 28.4531C168.297 27.1719 168.688 25.8281 169.344 24.4219C170.031 22.9844 170.859 21.6719 171.828 20.4844C172.828 19.2969 173.938 18.3125 175.156 17.5312C176.406 16.75 177.656 16.3594 178.906 16.3594C180.094 16.3594 180.953 16.6562 181.484 17.25C182.016 17.8438 182.25 18.5781 182.188 19.4531C182.094 20.4219 181.812 21.3125 181.344 22.125C180.906 22.9375 180.375 23.6719 179.75 24.3281C179.125 24.9844 178.453 25.5781 177.734 26.1094C177.047 26.6406 176.391 27.125 175.766 27.5625C175.078 28.0312 174.422 28.4844 173.797 28.9219C173.172 29.3281 172.625 29.7031 172.156 30.0469C172.188 30.8281 172.328 31.4844 172.578 32.0156C172.828 32.5469 173.141 32.9844 173.516 33.3281C173.891 33.6406 174.312 33.875 174.781 34.0312C175.281 34.1562 175.781 34.2188 176.281 34.2188C177.344 34.2188 178.453 33.8906 179.609 33.2344C180.766 32.5469 181.891 31.7344 182.984 30.7969C184.109 29.8281 185.141 28.8281 186.078 27.7969C187.047 26.7656 187.844 25.875 188.469 25.125C188.688 24.875 188.906 24.7344 189.125 24.7031C189.375 24.6406 189.562 24.6719 189.688 24.7969C189.844 24.8906 189.922 25.0781 189.922 25.3594C189.922 25.6094 189.812 25.9062 189.594 26.25ZM177.594 19.0312C177.219 19.0312 176.766 19.2188 176.234 19.5938C175.734 19.9688 175.234 20.5156 174.734 21.2344C174.234 21.9219 173.766 22.7812 173.328 23.8125C172.891 24.8125 172.562 25.9688 172.344 27.2812C172.719 27 173.125 26.7188 173.562 26.4375C174 26.125 174.438 25.7969 174.875 25.4531C176.219 24.4219 177.156 23.5156 177.688 22.7344C178.219 21.9531 178.516 21.2812 178.578 20.7188C178.641 20.125 178.578 19.7031 178.391 19.4531C178.203 19.1719 177.938 19.0312 177.594 19.0312Z" fill="#FAFAFA"/>
</svg>
